<svg width="48" height="48" viewBox="0 0 48 48" fill="none" xmlns="http://www.w3.org/2000/svg">
<path d="M8.33573 6.42927C8.21226 6.29676 8.06336 6.19048 7.89791 6.11676C7.73247 6.04304 7.55387 6.00341 7.37278 6.00021C7.19168 5.99701 7.0118 6.03033 6.84385 6.09816C6.67591 6.166 6.52335 6.26696 6.39528 6.39504C6.26721 6.52311 6.16624 6.67567 6.09841 6.84361C6.03057 7.01155 5.99726 7.19144 6.00045 7.37253C6.00365 7.55363 6.04329 7.73222 6.117 7.89767C6.19072 8.06311 6.29701 8.21201 6.42952 8.33549L9.24748 11.1535C8.28094 11.6407 7.4687 12.3868 6.90129 13.3086C6.33387 14.2303 6.03358 15.2916 6.03389 16.374V31.6597C6.03389 33.2097 6.64965 34.6963 7.74571 35.7924C8.84177 36.8884 10.3284 37.5042 11.8784 37.5042H25.3658C26.6882 37.5042 27.9715 37.0559 29.0062 36.2325C30.0409 35.4091 30.7659 34.2592 31.0629 32.9706L39.6966 41.6062C39.9496 41.8592 40.2928 42.0013 40.6506 42.0013C41.0084 42.0013 41.3516 41.8592 41.6046 41.6062C41.8576 41.3531 41.9998 41.01 41.9998 40.6522C41.9998 40.2943 41.8576 39.9512 41.6046 39.6982L8.33573 6.42927ZM33.0087 27.2862L41.1083 35.3876C41.3798 35.2292 41.605 35.0023 41.7615 34.7297C41.918 34.4571 42.0003 34.1482 42.0002 33.8338V14.198C42.0004 13.8546 41.9022 13.5183 41.7172 13.2289C41.5323 12.9396 41.2684 12.7092 40.9567 12.5651C40.645 12.421 40.2985 12.3691 39.9582 12.4156C39.618 12.4622 39.2982 12.6052 39.0366 12.8277L33.0087 17.9529V27.2862ZM16.2519 10.5294L31.2103 25.4878V16.374C31.2103 14.8239 30.5946 13.3373 29.4985 12.2413C28.4024 11.1452 26.9159 10.5294 25.3658 10.5294H16.2519Z" fill="black"/>
</svg>
