<svg width="48" height="48" viewBox="0 0 48 48" fill="none" xmlns="http://www.w3.org/2000/svg">
<path d="M31.2002 31.15C31.2002 32.7015 30.5839 34.1895 29.4868 35.2866C28.3897 36.3837 26.9018 37 25.3502 37H11.8502C10.2987 37 8.81076 36.3837 7.71367 35.2866C6.61658 34.1895 6.00024 32.7015 6.00024 31.15V15.85C6.00024 14.2985 6.61658 12.8105 7.71367 11.7134C8.81076 10.6163 10.2987 10 11.8502 10H25.3502C26.9018 10 28.3897 10.6163 29.4868 11.7134C30.5839 12.8105 31.2002 14.2985 31.2002 15.85V31.15ZM41.5718 12.5074C41.8486 12.833 42.0004 13.2465 42.0002 13.6738V33.3262C42.0004 33.6699 41.9021 34.0065 41.717 34.2962C41.5318 34.5858 41.2677 34.8164 40.9557 34.9607C40.6437 35.1049 40.2969 35.1568 39.9563 35.1102C39.6158 35.0637 39.2956 34.9205 39.0338 34.6978L33.0002 29.566V17.4304L39.0338 12.3022C39.2139 12.149 39.4225 12.0327 39.6475 11.9601C39.8725 11.8875 40.1097 11.8599 40.3454 11.879C40.5811 11.898 40.8107 11.9633 41.0211 12.0712C41.2316 12.179 41.4187 12.3272 41.5718 12.5074Z" fill="black"/>
</svg>
