<svg width="48" height="48" viewBox="0 0 48 48" fill="none" xmlns="http://www.w3.org/2000/svg">
<path d="M6 20C4.89543 20 4 20.8954 4 22C4 23.1046 4.89543 24 6 24C9.71303 24 13.274 25.475 15.8995 28.1005C18.525 30.726 20 34.287 20 38C20 39.1046 20.8954 40 22 40C23.1046 40 24 39.1046 24 38C24 33.2261 22.1036 28.6477 18.7279 25.2721C15.3523 21.8964 10.7739 20 6 20Z" fill="black"/>
<path d="M6 28C5.19107 28 4.4618 28.4873 4.15224 29.2346C3.84268 29.982 4.01379 30.8422 4.58578 31.4142L12.5858 39.4142C13.1578 39.9862 14.018 40.1573 14.7654 39.8478C15.5127 39.5382 16 38.8089 16 38C16 35.3478 14.9464 32.8043 13.0711 30.9289C11.1957 29.0536 8.65216 28 6 28Z" fill="black"/>
<path d="M6 36C4.89543 36 4 36.8954 4 38C4 39.1046 4.89543 40 6 40H6.02C7.12457 40 8.02 39.1046 8.02 38C8.02 36.8954 7.12457 36 6.02 36H6Z" fill="black"/>
<path d="M12 8H36C38.1217 8 40.1566 8.84286 41.6569 10.3431C43.1571 11.8434 44 13.8783 44 16V32C44 34.1217 43.1571 36.1566 41.6569 37.6569C40.1566 39.1571 38.1217 40 36 40H30C28.8954 40 28 39.1046 28 38C28 36.8954 28.8954 36 30 36H36C37.0609 36 38.0783 35.5786 38.8284 34.8284C39.5786 34.0783 40 33.0609 40 32V16C40 14.9391 39.5786 13.9217 38.8284 13.1716C38.0783 12.4214 37.0609 12 36 12H12.0104C11.1928 12.0095 10.3975 12.2694 9.732 12.7448C9.06414 13.2218 8.55919 13.8928 8.28565 14.6666C7.91751 15.708 6.77484 16.2538 5.73342 15.8857C4.69201 15.5175 4.14621 14.3748 4.51435 13.3334C5.06143 11.7858 6.07133 10.4439 7.40704 9.48986C8.74276 8.53578 10.3396 8.01567 11.981 8.00009L12 8Z" fill="black"/>
</svg>
