<svg width="48" height="48" viewBox="0 0 48 48" fill="none" xmlns="http://www.w3.org/2000/svg">
<path d="M9.23077 10C8.55138 10 8 10.5514 8 11.2308V21.0769C8 21.7563 8.55138 22.3077 9.23077 22.3077H24C24.6794 22.3077 25.2308 21.7563 25.2308 21.0769V11.2308C25.2308 10.5514 24.6794 10 24 10H9.23077ZM27.6923 10V12.4615H30.1538V27.2308H10.4615V24.7692H8V28.4615C8.00003 28.7879 8.12971 29.101 8.36052 29.3318C8.59133 29.5626 8.90436 29.6923 9.23077 29.6923H31.3846C31.711 29.6923 32.0241 29.5626 32.2549 29.3318C32.4857 29.101 32.6154 28.7879 32.6154 28.4615V11.2308C32.6154 10.9044 32.4857 10.5913 32.2549 10.3605C32.0241 10.1297 31.711 10 31.3846 10H27.6923ZM35.0769 10V12.4615H37.5385V34.6154H10.4615V32.1538H8V35.8462C8.00003 36.1726 8.12971 36.4856 8.36052 36.7164C8.59133 36.9472 8.90436 37.0769 9.23077 37.0769H38.7692C39.0956 37.0769 39.4087 36.9472 39.6395 36.7164C39.8703 36.4856 40 36.1726 40 35.8462V11.2308C40 10.9044 39.8703 10.5913 39.6395 10.3605C39.4087 10.1297 39.0956 10 38.7692 10H35.0769Z" fill="black"/>
</svg>
