<svg width="48" height="48" viewBox="0 0 48 48" fill="none" xmlns="http://www.w3.org/2000/svg">
<path d="M10.5 6C8.77609 6 7.12279 6.68482 5.90381 7.90381C4.68482 9.12279 4 10.7761 4 12.5V31.5C4 33.2239 4.68482 34.8772 5.90381 36.0962C7.12279 37.3152 8.77609 38 10.5 38H22V30C22 28.4087 22.6321 26.8826 23.7574 25.7574C24.8826 24.6321 26.4087 24 28 24H42C42.7 24 43.374 24.12 44 24.34V12.5C44 11.6464 43.8319 10.8012 43.5052 10.0126C43.1786 9.22394 42.6998 8.50739 42.0962 7.90381C41.4926 7.30022 40.7761 6.82144 39.9874 6.49478C39.1988 6.16813 38.3536 6 37.5 6H10.5ZM12.56 12.44L19 18.88V15.5C19 15.1022 19.158 14.7206 19.4393 14.4393C19.7206 14.158 20.1022 14 20.5 14C20.8978 14 21.2794 14.158 21.5607 14.4393C21.842 14.7206 22 15.1022 22 15.5V22.5C22 22.8978 21.842 23.2794 21.5607 23.5607C21.2794 23.842 20.8978 24 20.5 24H13.5C13.1022 24 12.7206 23.842 12.4393 23.5607C12.158 23.2794 12 22.8978 12 22.5C12 22.1022 12.158 21.7206 12.4393 21.4393C12.7206 21.158 13.1022 21 13.5 21H16.88L10.44 14.56C10.175 14.2757 10.0308 13.8996 10.0377 13.511C10.0445 13.1224 10.2019 12.7516 10.4768 12.4768C10.7516 12.2019 11.1224 12.0445 11.511 12.0377C11.8996 12.0308 12.2757 12.175 12.56 12.44ZM44 26.536C43.3923 26.184 42.7023 25.9991 42 26H28C26.9391 26 25.9217 26.4214 25.1716 27.1716C24.4214 27.9217 24 28.9391 24 30V40C24 41.0609 24.4214 42.0783 25.1716 42.8284C25.9217 43.5786 26.9391 44 28 44H42C43.0609 44 44.0783 43.5786 44.8284 42.8284C45.5786 42.0783 46 41.0609 46 40V30C46 29.2979 45.8152 28.6081 45.4641 28.0001C45.113 27.392 44.6081 26.8871 44 26.536Z" fill="black"/>
</svg>
