<svg width="48" height="48" viewBox="0 0 48 48" fill="none" xmlns="http://www.w3.org/2000/svg">
<path d="M41.8968 17.4282C42.143 18.0697 41.9341 18.7933 41.4268 19.2633L38.1967 22.2025C38.2787 22.8216 38.3235 23.4557 38.3235 24.0973C38.3235 24.7388 38.2787 25.3729 38.1967 25.9921L41.4268 28.9313C41.9341 29.4013 42.143 30.1249 41.8968 30.7664C41.5685 31.6541 41.1732 32.512 40.7256 33.3251L40.375 33.9294C39.8826 34.75 39.3306 35.5258 38.7263 36.2643C38.2787 36.794 37.5551 36.9805 36.8987 36.7716L32.7435 35.4438C31.7439 36.2121 30.5727 36.8537 29.4612 37.346L28.5287 41.6056C28.3795 42.277 27.8573 42.7544 27.171 42.9335C26.1415 43.105 25.0822 43.1946 23.9334 43.1946C22.9189 43.1946 21.8596 43.105 20.8301 42.9335C20.1438 42.7544 19.6216 42.277 19.4724 41.6056L18.5399 37.346C17.3612 36.8537 16.2572 36.2121 15.2576 35.4438L11.1054 36.7716C10.4459 36.9805 9.7186 36.794 9.27698 36.2643C8.67198 35.5258 8.11995 34.75 7.6276 33.9294L7.27848 33.3251C6.82566 32.512 6.43178 31.6541 6.10131 30.7664C5.85961 30.1249 6.06327 29.4013 6.57501 28.9313L9.80216 25.9921C9.7201 25.3729 9.67758 24.7388 9.67758 24.0973C9.67758 23.4557 9.7201 22.8216 9.80216 22.2025L6.57501 19.2633C6.06327 18.7933 5.85961 18.0772 6.10131 17.4282C6.43178 16.5404 6.82641 15.6825 7.27848 14.8694L7.62686 14.2652C8.11995 13.4446 8.67198 12.6688 9.27698 11.934C9.7186 11.4006 10.4459 11.2156 11.1054 11.4259L15.2576 12.7508C16.2572 11.9795 17.3612 11.3379 18.5399 10.8508L19.4724 6.59119C19.6216 5.91383 20.1438 5.37598 20.8301 5.26184C21.8596 5.08959 22.9189 5 24.0005 5C25.0822 5 26.1415 5.08959 27.171 5.26184C27.8573 5.37598 28.3795 5.91383 28.5287 6.59119L29.4612 10.8508C30.5727 11.3379 31.7439 11.9795 32.7435 12.7508L36.8987 11.4259C37.5551 11.2156 38.2787 11.4006 38.7263 11.934C39.3306 12.6688 39.8826 13.4446 40.375 14.2652L40.7256 14.8694C41.1732 15.6825 41.5685 16.5404 41.8968 17.4282ZM24.0005 30.0652C27.2978 30.0652 29.9684 27.3945 29.9684 24.0301C29.9684 20.8 27.2978 18.0622 24.0005 18.0622C20.7033 18.0622 18.0326 20.8 18.0326 24.0301C18.0326 27.3945 20.7033 30.0652 24.0005 30.0652Z" fill="black"/>
</svg>
