<svg width="50" height="49" viewBox="0 0 50 49" fill="none" xmlns="http://www.w3.org/2000/svg">
<path d="M22.9432 13.5712C22.9432 14.9045 22.4026 16.1832 21.4402 17.126C20.4779 18.0688 19.1726 18.5985 17.8117 18.5985C16.4507 18.5985 15.1454 18.0688 14.1831 17.126C13.2207 16.1832 12.6801 14.9045 12.6801 13.5712C12.6801 12.2379 13.2207 10.9592 14.1831 10.0164C15.1454 9.07357 16.4507 8.54391 17.8117 8.54391C19.1726 8.54391 20.4779 9.07357 21.4402 10.0164C22.4026 10.9592 22.9432 12.2379 22.9432 13.5712V13.5712ZM31.6156 21.7214C31.4231 21.627 31.2052 21.5942 30.9926 21.6278C30.7801 21.6613 30.5837 21.7595 30.4312 21.9084L22.816 31.3798L17.356 25.8056C17.1588 25.677 16.9224 25.6192 16.6867 25.6419C16.451 25.6646 16.2306 25.7665 16.0628 25.9303L8.57892 34.6858V38.7076C8.57892 39.2409 8.79518 39.7524 9.18012 40.1295C9.56506 40.5067 10.0872 40.7185 10.6315 40.7185H39.3684C39.6379 40.7185 39.9049 40.6665 40.1539 40.5654C40.4029 40.4644 40.6292 40.3163 40.8198 40.1295C41.0104 39.9428 41.1616 39.7211 41.2648 39.4772C41.3679 39.2332 41.421 38.9717 41.421 38.7076V29.6585L31.6156 21.7214V21.7214Z" fill="black"/>
</svg>
