<svg width="48" height="48" viewBox="0 0 48 48" fill="none" xmlns="http://www.w3.org/2000/svg">
<path d="M27.696 26.634L19.01 36.56C18.6346 36.989 18.1718 37.3328 17.6527 37.5683C17.1335 37.8038 16.5701 37.9257 16 37.9257C15.43 37.9257 14.8665 37.8038 14.3474 37.5683C13.8282 37.3328 13.3654 36.989 12.99 36.56L4.30401 26.634C3.666 25.9049 3.31433 24.9689 3.31433 24C3.31433 23.0311 3.666 22.0952 4.30401 21.366L12.99 11.44C13.3654 11.0111 13.8282 10.6673 14.3474 10.4318C14.8665 10.1962 15.43 10.0744 16 10.0744C16.5701 10.0744 17.1335 10.1962 17.6527 10.4318C18.1718 10.6673 18.6346 11.0111 19.01 11.44L27.696 21.366C28.334 22.0952 28.6857 23.0311 28.6857 24C28.6857 24.9689 28.334 25.9049 27.696 26.634Z" fill="black"/>
<path d="M27.1389 9.02384C26.5998 8.39485 25.6528 8.32201 25.0238 8.86114C24.3948 9.40028 24.322 10.3472 24.8611 10.9762L34.6291 22.3722C35.0178 22.8254 35.2317 23.403 35.2317 24C35.2317 24.597 35.018 25.1743 34.6294 25.6275L24.8611 37.0238C24.322 37.6528 24.3948 38.5998 25.0238 39.1389C25.6528 39.678 26.5998 39.6052 27.1389 38.9762L36.9066 27.5805C37.7615 26.5836 38.2317 25.3133 38.2317 24C38.2317 22.6867 37.7618 21.4168 36.9069 20.4198L27.1389 9.02384Z" fill="black"/>
<path d="M33.0238 8.86114C33.6528 8.32201 34.5998 8.39485 35.1389 9.02384L44.9066 20.4195C45.7615 21.4165 46.2317 22.6867 46.2317 24C46.2317 25.3133 45.7618 26.5833 44.9069 27.5802L35.1389 38.9762C34.5998 39.6052 33.6528 39.678 33.0238 39.1389C32.3948 38.5998 32.322 37.6528 32.8611 37.0238L42.6291 25.6278C43.0178 25.1747 43.2317 24.597 43.2317 24C43.2317 23.403 43.018 22.8257 42.6294 22.3725L32.8611 10.9762C32.322 10.3472 32.3948 9.40028 33.0238 8.86114Z" fill="black"/>
</svg>
