<svg width="48" height="48" viewBox="0 0 48 48" fill="none" xmlns="http://www.w3.org/2000/svg">
<path d="M16.5671 22.8453L15.4674 26.2543H17.6667L16.5671 22.8453Z" fill="black"/>
<path d="M37.7904 8H20.1959V13.4983H24.5945V15.6976H10.299C8.42955 15.6976 7 17.1271 7 18.9966V31.0928C7 32.9622 8.42955 34.3918 10.299 34.3918H11.3986V40L18.3265 34.3918H25.6942V26.6942H37.7904C39.6598 26.6942 41.0893 25.2646 41.0893 23.3952V11.299C41.0893 9.42955 39.6598 8 37.7904 8ZM18.8763 29.8832L18.3265 28.1237H14.9175L14.2577 29.8832H11.6186L15.2474 20.0962H17.8866L21.5155 29.8832H18.8763ZM35.5911 21.1959V23.3952C34.1615 23.3952 32.622 22.9553 31.3024 22.2955C29.9828 22.9553 28.4433 23.2852 26.9038 23.3952L26.7938 21.1959C27.5636 21.1959 28.3333 21.0859 29.1031 20.866C28.1134 19.8763 27.4536 18.6667 27.1237 17.3471H29.433C29.7629 18.3368 30.4227 19.1065 31.1924 19.7663C32.4021 18.7766 33.1718 17.3471 33.2818 15.6976H26.6838V13.4983H29.9828V11.299H32.1821V13.4983H35.811L35.921 14.5979C36.0309 16.9072 35.1512 19.2165 33.5017 20.866C34.2715 21.0859 34.9313 21.1959 35.5911 21.1959Z" fill="black"/>
</svg>
