<svg width="48" height="48" viewBox="0 0 48 48" fill="none" xmlns="http://www.w3.org/2000/svg" class="animate-spin">
<path opacity="0.5" d="M24 6C20.4399 6 16.9598 7.05568 13.9997 9.03355C11.0397 11.0114 8.73255 13.8226 7.37018 17.1117C6.0078 20.4008 5.65134 24.02 6.34587 27.5116C7.04041 31.0033 8.75474 34.2106 11.2721 36.7279C13.7894 39.2453 16.9967 40.9596 20.4884 41.6541C23.98 42.3487 27.5992 41.9922 30.8883 40.6298C34.1774 39.2674 36.9886 36.9603 38.9664 34.0003C40.9443 31.0402 42 27.5601 42 24C42 21.6362 41.5344 19.2956 40.6298 17.1117C39.7252 14.9278 38.3994 12.9435 36.7279 11.2721C35.0565 9.60062 33.0722 8.27475 30.8883 7.37017C28.7044 6.46558 26.3638 6 24 6V6ZM24 38.4C21.152 38.4 18.3679 37.5554 15.9998 35.9732C13.6317 34.3909 11.786 32.1419 10.6961 29.5106C9.60624 26.8794 9.32107 23.984 9.8767 21.1907C10.4323 18.3974 11.8038 15.8315 13.8177 13.8177C15.8315 11.8038 18.3974 10.4323 21.1907 9.87669C23.984 9.32106 26.8794 9.60623 29.5106 10.6961C32.1419 11.786 34.3909 13.6317 35.9732 15.9998C37.5555 18.3679 38.4 21.1519 38.4 24C38.4 27.8191 36.8829 31.4818 34.1823 34.1823C31.4818 36.8829 27.8191 38.4 24 38.4V38.4Z" fill="black"/>
<path d="M38.4 24H42C42 21.6362 41.5344 19.2956 40.6298 17.1117C39.7252 14.9278 38.3994 12.9435 36.7279 11.2721C35.0565 9.60062 33.0722 8.27475 30.8883 7.37017C28.7044 6.46558 26.3638 6 24 6V9.6C27.8191 9.6 31.4818 11.1171 34.1823 13.8177C36.8829 16.5182 38.4 20.1809 38.4 24Z" fill="black"/>
</svg>
