<svg width="48" height="48" viewBox="0 0 48 48" fill="none" xmlns="http://www.w3.org/2000/svg">
<path fill-rule="evenodd" clip-rule="evenodd" d="M37.9537 13.9456L21.9083 19.1588C21.72 19.2802 21.5038 19.3513 21.2802 19.3656L15.7712 21.153H38.6917C39.0387 21.153 39.3716 21.2909 39.617 21.5363C39.8624 21.7817 40.0002 22.1145 40.0002 22.4616V35.5471C40.0002 37.2823 39.3109 38.9465 38.0839 40.1735C36.8569 41.4005 35.1928 42.0898 33.4575 42.0898H15.1379C13.4026 42.0898 11.7385 41.4005 10.5115 40.1735C9.28447 38.9465 8.59515 37.2823 8.59515 35.5471V22.4616C8.59515 22.1842 8.68152 21.9251 8.83069 21.7105L8.32036 20.135C7.78428 18.4848 7.92564 16.6892 8.71336 15.1432C9.50108 13.5972 10.8706 12.4274 12.5208 11.8912L29.9428 6.23039C31.593 5.69431 33.3886 5.83568 34.9345 6.6234C36.4805 7.41112 37.6503 8.78067 38.1866 10.4308L38.7938 12.2968C38.9011 12.6265 38.8732 12.9853 38.7162 13.2945C38.5591 13.6036 38.2858 13.8378 37.9563 13.9456H37.9537ZM28.1553 14.3774L31.5209 8.55175C31.2594 8.58176 31.0017 8.63787 30.7514 8.71925L27.4932 9.77655L24.07 15.7043L28.1553 14.3774ZM34.1615 9.19817C34.1463 9.23111 34.1297 9.26341 34.1118 9.29501L31.8768 13.1683L35.9019 11.8598L35.6977 11.2395C35.4287 10.4062 34.8877 9.6874 34.1615 9.19817ZM23.7717 10.9856L19.689 12.3125L16.2658 18.2402L20.3511 16.9134L23.7743 10.9856H23.7717ZM11.0133 19.9492L12.5496 19.4519L15.9727 13.5216L13.3295 14.38C12.3399 14.7023 11.5187 15.4044 11.0466 16.3319C10.5745 17.2595 10.4901 18.3365 10.8118 19.3263L11.0133 19.9492ZM13 24C12.4477 24 12 24.4477 12 25V35C12 37.2091 13.7909 39 16 39H33C35.2091 39 37 37.2091 37 35V25C37 24.4477 36.5523 24 36 24H13Z" fill="#2E70EA"/>
</svg>
