<svg width="48" height="48" viewBox="0 0 48 48" fill="none" xmlns="http://www.w3.org/2000/svg">
<path d="M24.0002 32C28.4122 32 32.0002 28.412 32.0002 24V12C32.0002 7.56601 28.4302 3.95801 24.0422 3.95801C23.9015 3.95885 23.7612 3.97563 23.6242 4.00801C21.5707 4.10757 19.6341 4.99272 18.215 6.48031C16.7959 7.96791 16.003 9.9441 16.0002 12V24C16.0002 28.412 19.5882 32 24.0002 32Z" fill="black"/>
<path d="M22.0002 39.862V44H26.0002V39.862C33.8782 38.872 40.0002 32.146 40.0002 24H36.0002C36.0002 30.618 30.6182 36 24.0002 36C17.3822 36 12.0002 30.618 12.0002 24H8.00024C8.00024 32.144 14.1222 38.872 22.0002 39.862Z" fill="black"/>
</svg>
