<svg width="48" height="48" viewBox="0 0 48 48" fill="none" xmlns="http://www.w3.org/2000/svg">
<path d="M43.4143 40.586L36.6143 33.786C38.8061 30.9947 39.9983 27.549 40.0003 24H36.0003C35.9983 26.4886 35.2156 28.9138 33.7623 30.934L30.8643 28.034C31.6015 26.8171 31.9941 25.4228 32.0003 24V12C32.0003 7.56601 28.4303 3.95801 24.0423 3.95801C23.9023 3.95801 23.7623 3.97601 23.6243 4.00801C21.5708 4.10757 19.6342 4.99272 18.2151 6.48031C16.796 7.96791 16.003 9.9441 16.0003 12V13.172L7.4143 4.58601L4.5863 7.41401L40.5863 43.414L43.4143 40.586ZM12.0003 24H8.0003C8.0003 32.144 14.1203 38.872 22.0003 39.862V44H26.0003V39.862C27.5481 39.6646 29.0584 39.2401 30.4823 38.602L27.3843 35.506C26.2858 35.8318 25.1461 35.9982 24.0003 36C17.3823 36 12.0003 30.618 12.0003 24Z" fill="black"/>
<path d="M16.0143 24.134C16.0503 26.2053 16.8891 28.1816 18.3539 29.6464C19.8187 31.1112 21.795 31.9501 23.8663 31.986L16.0143 24.134Z" fill="black"/>
</svg>
