<svg width="48" height="48" viewBox="0 0 48 48" fill="none" xmlns="http://www.w3.org/2000/svg">
<path d="M37.3373 9.33335C37.3373 8.97973 37.4778 8.64059 37.7278 8.39054C37.9779 8.1405 38.317 8.00002 38.6706 8.00002C39.0243 8.00002 39.3634 8.1405 39.6135 8.39054C39.8635 8.64059 40.004 8.97973 40.004 9.33335V38.6667C40.004 39.0203 39.8635 39.3594 39.6135 39.6095C39.3634 39.8595 39.0243 40 38.6706 40C38.317 40 37.9779 39.8595 37.7278 39.6095C37.4778 39.3594 37.3373 39.0203 37.3373 38.6667V9.33335ZM8 11.3387C8 8.66935 10.9813 7.08269 13.196 8.57469L31.8667 21.1507C32.3178 21.4548 32.6876 21.8647 32.9438 22.3447C33.2001 22.8246 33.3349 23.36 33.3366 23.9041C33.3383 24.4481 33.2068 24.9844 32.9536 25.4659C32.7004 25.9475 32.3332 26.3597 31.884 26.6667L13.2133 39.4133C11 40.9227 8 39.3387 8 36.6587V11.3414V11.3387Z" fill="black"/>
</svg>
