<svg width="48" height="48" viewBox="0 0 48 48" fill="none" xmlns="http://www.w3.org/2000/svg">
<path d="M12 8C10.9391 8 9.92172 8.42143 9.17157 9.17157C8.42143 9.92172 8 10.9391 8 12V36C8 37.0609 8.42143 38.0783 9.17157 38.8284C9.92172 39.5786 10.9391 40 12 40H16C17.0609 40 18.0783 39.5786 18.8284 38.8284C19.5786 38.0783 20 37.0609 20 36V12C20 10.9391 19.5786 9.92172 18.8284 9.17157C18.0783 8.42143 17.0609 8 16 8H12ZM32 8C30.9391 8 29.9217 8.42143 29.1716 9.17157C28.4214 9.92172 28 10.9391 28 12V36C28 37.0609 28.4214 38.0783 29.1716 38.8284C29.9217 39.5786 30.9391 40 32 40H36C37.0609 40 38.0783 39.5786 38.8284 38.8284C39.5786 38.0783 40 37.0609 40 36V12C40 10.9391 39.5786 9.92172 38.8284 9.17157C38.0783 8.42143 37.0609 8 36 8H32Z" fill="black"/>
</svg>
