<svg width="48" height="48" viewBox="0 0 48 48" fill="none" xmlns="http://www.w3.org/2000/svg">
<path d="M10.2638 31.7263L13.9663 28.7829C14.8548 28.0794 15.3732 27.0057 15.3732 25.8764V21.0632C20.964 19.2489 27.0175 19.2304 32.6268 21.0632V25.8949C32.6268 27.0242 33.1452 28.0979 34.0338 28.8014L37.7177 31.7263C39.1987 32.8926 41.3091 32.7815 42.642 31.4486L44.9006 29.1901C46.3816 27.7091 46.3816 25.247 44.808 23.8585C32.9415 13.3805 15.0585 13.3805 3.192 23.8585C1.61844 25.247 1.61844 27.7091 3.09944 29.1901L5.35796 31.4486C6.67234 32.7815 8.78276 32.8926 10.2638 31.7263Z" fill="black"/>
</svg>
