<svg width="48" height="48" viewBox="0 0 48 48" fill="none" xmlns="http://www.w3.org/2000/svg">
<path d="M24.0002 8C24.5307 8 25.0394 8.21071 25.4145 8.58579C25.7895 8.96086 26.0002 9.46957 26.0002 10V22H38.0002C38.5307 22 39.0394 22.2107 39.4145 22.5858C39.7895 22.9609 40.0002 23.4696 40.0002 24C40.0002 24.5304 39.7895 25.0391 39.4145 25.4142C39.0394 25.7893 38.5307 26 38.0002 26H26.0002V38C26.0002 38.5304 25.7895 39.0391 25.4145 39.4142C25.0394 39.7893 24.5307 40 24.0002 40C23.4698 40 22.9611 39.7893 22.586 39.4142C22.211 39.0391 22.0002 38.5304 22.0002 38V26H10.0002C9.46981 26 8.9611 25.7893 8.58603 25.4142C8.21096 25.0391 8.00024 24.5304 8.00024 24C8.00024 23.4696 8.21096 22.9609 8.58603 22.5858C8.9611 22.2107 9.46981 22 10.0002 22H22.0002V10C22.0002 9.46957 22.211 8.96086 22.586 8.58579C22.9611 8.21071 23.4698 8 24.0002 8Z" fill="black"/>
</svg>
