<svg width="32" height="32" viewBox="0 0 32 32" fill="none" xmlns="http://www.w3.org/2000/svg">
<path d="M7.10854 25.7777C7.10854 26.0135 7.01489 26.2396 6.84819 26.4063C6.68149 26.573 6.45539 26.6666 6.21965 26.6666C5.9839 26.6666 5.75781 26.573 5.59111 26.4063C5.42441 26.2396 5.33076 26.0135 5.33076 25.7777L5.33076 6.22218C5.33076 5.98643 5.42441 5.76034 5.59111 5.59364C5.75781 5.42694 5.9839 5.33329 6.21965 5.33329C6.45539 5.33329 6.68149 5.42694 6.84819 5.59364C7.01489 5.76034 7.10854 5.98643 7.10854 6.22218L7.10854 25.7777ZM26.6667 24.4408C26.6667 26.2204 24.6792 27.2782 23.2027 26.2835L10.7556 17.8995C10.4549 17.6968 10.2084 17.4235 10.0375 17.1035C9.86671 16.7835 9.77681 16.4266 9.77567 16.0639C9.77453 15.7012 9.86219 15.3437 10.031 15.0227C10.1998 14.7017 10.4446 14.4268 10.7441 14.2222L23.1912 5.72441C24.6667 4.71818 26.6667 5.77418 26.6667 7.56085L26.6667 24.4391V24.4408Z" fill="black"/>
</svg>
