<svg width="48" height="48" viewBox="0 0 48 48" fill="none" xmlns="http://www.w3.org/2000/svg">
<path d="M8 13.1429C8 11.7789 8.54184 10.4708 9.50631 9.50631C10.4708 8.54184 11.7789 8 13.1429 8H17.4057C17.8604 8 18.2964 8.18061 18.6179 8.5021C18.9394 8.82359 19.12 9.25963 19.12 9.71429C19.12 10.1689 18.9394 10.605 18.6179 10.9265C18.2964 11.248 17.8604 11.4286 17.4057 11.4286H13.1429C12.6882 11.4286 12.2522 11.6092 11.9307 11.9307C11.6092 12.2522 11.4286 12.6882 11.4286 13.1429V17.4057C11.4286 17.8604 11.248 18.2964 10.9265 18.6179C10.605 18.9394 10.1689 19.12 9.71429 19.12C9.25963 19.12 8.82359 18.9394 8.5021 18.6179C8.18061 18.2964 8 17.8604 8 17.4057V13.1429ZM28.88 9.71429C28.88 9.25963 29.0606 8.82359 29.3821 8.5021C29.7036 8.18061 30.1396 8 30.5943 8H34.8571C36.2211 8 37.5292 8.54184 38.4937 9.50631C39.4582 10.4708 40 11.7789 40 13.1429V17.4057C40 17.8604 39.8194 18.2964 39.4979 18.6179C39.1764 18.9394 38.7404 19.12 38.2857 19.12C37.8311 19.12 37.395 18.9394 37.0735 18.6179C36.752 18.2964 36.5714 17.8604 36.5714 17.4057V13.1429C36.5714 12.6882 36.3908 12.2522 36.0693 11.9307C35.7478 11.6092 35.3118 11.4286 34.8571 11.4286H30.5943C30.1396 11.4286 29.7036 11.248 29.3821 10.9265C29.0606 10.605 28.88 10.1689 28.88 9.71429ZM9.71429 28.88C10.1689 28.88 10.605 29.0606 10.9265 29.3821C11.248 29.7036 11.4286 30.1396 11.4286 30.5943V34.8571C11.4286 35.8034 12.1966 36.5714 13.1429 36.5714H17.4057C17.8604 36.5714 18.2964 36.752 18.6179 37.0735C18.9394 37.395 19.12 37.8311 19.12 38.2857C19.12 38.7404 18.9394 39.1764 18.6179 39.4979C18.2964 39.8194 17.8604 40 17.4057 40H13.1429C11.7789 40 10.4708 39.4582 9.50631 38.4937C8.54184 37.5292 8 36.2211 8 34.8571V30.5943C8 30.1396 8.18061 29.7036 8.5021 29.3821C8.82359 29.0606 9.25963 28.88 9.71429 28.88ZM38.2857 28.88C38.7404 28.88 39.1764 29.0606 39.4979 29.3821C39.8194 29.7036 40 30.1396 40 30.5943V34.8571C40 36.2211 39.4582 37.5292 38.4937 38.4937C37.5292 39.4582 36.2211 40 34.8571 40H30.5943C30.1396 40 29.7036 39.8194 29.3821 39.4979C29.0606 39.1764 28.88 38.7404 28.88 38.2857C28.88 37.8311 29.0606 37.395 29.3821 37.0735C29.7036 36.752 30.1396 36.5714 30.5943 36.5714H34.8571C35.3118 36.5714 35.7478 36.3908 36.0693 36.0693C36.3908 35.7478 36.5714 35.3118 36.5714 34.8571V30.5943C36.5714 30.1396 36.752 29.7036 37.0735 29.3821C37.395 29.0606 37.8311 28.88 38.2857 28.88Z" fill="black"/>
</svg>
