<svg width="48" height="48" viewBox="0 0 48 48" fill="none" xmlns="http://www.w3.org/2000/svg">
<path d="M34 15C33.7348 15 33.4804 14.8946 33.2929 14.7071C33.1054 14.5196 33 14.2652 33 14V9.5C33 9.10218 32.842 8.72064 32.5607 8.43934C32.2794 8.15804 31.8978 8 31.5 8C31.1022 8 30.7206 8.15804 30.4393 8.43934C30.158 8.72064 30 9.10218 30 9.5V14C30 15.0609 30.4214 16.0783 31.1716 16.8284C31.9217 17.5786 32.9391 18 34 18H38.5C38.8978 18 39.2794 17.842 39.5607 17.5607C39.842 17.2794 40 16.8978 40 16.5C40 16.1022 39.842 15.7206 39.5607 15.4393C39.2794 15.158 38.8978 15 38.5 15H34ZM15 34C15 33.7348 14.8946 33.4804 14.7071 33.2929C14.5196 33.1054 14.2652 33 14 33H9.5C9.10218 33 8.72064 32.842 8.43934 32.5607C8.15804 32.2794 8 31.8978 8 31.5C8 31.1022 8.15804 30.7206 8.43934 30.4393C8.72064 30.158 9.10218 30 9.5 30H14C15.0609 30 16.0783 30.4214 16.8284 31.1716C17.5786 31.9217 18 32.9391 18 34V38.5C18 38.8978 17.842 39.2794 17.5607 39.5607C17.2794 39.842 16.8978 40 16.5 40C16.1022 40 15.7206 39.842 15.4393 39.5607C15.158 39.2794 15 38.8978 15 38.5V34ZM33 34C33 33.7348 33.1054 33.4804 33.2929 33.2929C33.4804 33.1054 33.7348 33 34 33H38.5C38.8978 33 39.2794 32.842 39.5607 32.5607C39.842 32.2794 40 31.8978 40 31.5C40 31.1022 39.842 30.7206 39.5607 30.4393C39.2794 30.158 38.8978 30 38.5 30H34C32.9391 30 31.9217 30.4214 31.1716 31.1716C30.4214 31.9217 30 32.9391 30 34V38.5C30 38.8978 30.158 39.2794 30.4393 39.5607C30.7206 39.842 31.1022 40 31.5 40C31.8978 40 32.2794 39.842 32.5607 39.5607C32.842 39.2794 33 38.8978 33 38.5V34ZM15 14C15 14.2652 14.8946 14.5196 14.7071 14.7071C14.5196 14.8946 14.2652 15 14 15H9.5C9.10218 15 8.72064 15.158 8.43934 15.4393C8.15804 15.7206 8 16.1022 8 16.5C8 16.8978 8.15804 17.2794 8.43934 17.5607C8.72064 17.842 9.10218 18 9.5 18H14C15.0609 18 16.0783 17.5786 16.8284 16.8284C17.5786 16.0783 18 15.0609 18 14V9.5C18 9.10218 17.842 8.72064 17.5607 8.43934C17.2794 8.15804 16.8978 8 16.5 8C16.1022 8 15.7206 8.15804 15.4393 8.43934C15.158 8.72064 15 9.10218 15 9.5V14Z" fill="black"/>
</svg>
