<svg width="48" height="48" viewBox="0 0 48 48" fill="none" xmlns="http://www.w3.org/2000/svg">
<path opacity="0.2" d="M24.0002 24H4.50024C14.2502 2.99997 19.1252 13.5 24.0002 24ZM24.0002 24C28.8752 34.5 33.7502 45 43.5002 24H24.0002Z" fill="black"/>
<path d="M44.869 24.6375C40.744 33.4875 37.1065 37.6313 33.3752 37.6313C28.669 37.6313 25.744 31.3125 22.6315 24.6375C20.194 19.35 17.419 13.3688 14.6252 13.3688C11.8315 13.3688 7.81899 20.4188 5.86899 24.6375C5.80029 24.8394 5.68985 25.0245 5.54486 25.1809C5.39987 25.3372 5.22358 25.4613 5.02746 25.545C4.83135 25.6287 4.6198 25.6702 4.40659 25.6667C4.19339 25.6633 3.9833 25.615 3.79 25.5249C3.5967 25.4349 3.42453 25.3052 3.28469 25.1442C3.14485 24.9832 3.04047 24.7946 2.97835 24.5906C2.91623 24.3867 2.89776 24.1719 2.92415 23.9603C2.95053 23.7487 3.02118 23.545 3.13149 23.3625C7.25649 14.5125 10.894 10.3688 14.6252 10.3688C19.3315 10.3688 22.2565 16.6875 25.369 23.3625C27.8065 28.65 30.5815 34.6313 33.3752 34.6313C36.4502 34.6313 40.1815 27.5813 42.1315 23.3625C42.3252 23.042 42.6305 22.8044 42.9888 22.6953C43.347 22.5862 43.733 22.6133 44.0724 22.7715C44.4119 22.9296 44.681 23.2075 44.828 23.552C44.9751 23.8964 44.9896 24.283 44.869 24.6375Z" fill="black"/>
</svg>
