<svg width="48" height="48" viewBox="0 0 48 48" fill="none" xmlns="http://www.w3.org/2000/svg">
<path d="M27.6763 8.17205C27.6763 6.27971 25.4219 5.29561 24.0346 6.58318L15.6416 14.3736C15.4411 14.5592 15.1778 14.6621 14.9046 14.6619H9.25144C8.3891 14.6619 7.56209 15.0045 6.95232 15.6142C6.34256 16.224 6 17.051 6 17.9134V28.7515C6 29.6138 6.34256 30.4408 6.95232 31.0506C7.56209 31.6604 8.3891 32.0029 9.25144 32.0029H14.9024C15.1757 32.0027 15.4389 32.1057 15.6394 32.2912L22.604 38.7551C21.8481 37.3566 21.3796 35.8211 21.2259 34.2389C21.0722 32.6566 21.2365 31.0597 21.7091 29.5419C22.1817 28.0241 22.9531 26.6161 23.9778 25.4008C25.0026 24.1856 26.2601 23.1875 27.6763 22.4654V8.17205ZM27.8171 26.4581L27.479 25.2508C28.0296 24.8281 28.6278 24.4661 29.2608 24.1735L29.9913 24.9495C30.3964 25.3793 30.8851 25.7219 31.4273 25.956C31.9696 26.1902 32.554 26.3111 33.1447 26.3113C33.7354 26.3116 34.3199 26.191 34.8623 25.9572C35.4047 25.7234 35.8936 25.3812 36.2991 24.9516L37.0014 24.206C37.6473 24.5116 38.2543 24.8888 38.8113 25.331L38.5382 26.2457C38.3691 26.8115 38.3174 27.4059 38.3863 27.9924C38.4551 28.579 38.643 29.1452 38.9386 29.6565C39.2341 30.1678 39.631 30.6133 40.1048 30.9657C40.5787 31.3182 41.1196 31.57 41.6943 31.7059L42.4529 31.8837C42.5399 32.6156 42.5472 33.3547 42.4746 34.0882L41.4753 34.3439C40.9156 34.4871 40.3901 34.7407 39.9298 35.0899C39.4695 35.4391 39.0836 35.8767 38.7948 36.3771C38.506 36.8775 38.3202 37.4306 38.2482 38.0039C38.1762 38.5772 38.2195 39.159 38.3756 39.7153L38.7116 40.9205C38.161 41.3454 37.5628 41.7074 36.9298 42L36.1994 41.224C35.7944 40.794 35.3058 40.4513 34.7636 40.2169C34.2214 39.9825 33.6371 39.8614 33.0464 39.861C32.4557 39.8606 31.8712 39.9809 31.3287 40.2146C30.7862 40.4482 30.2971 40.7902 29.8916 41.2197L29.1871 41.9675C28.5437 41.6632 27.9372 41.2865 27.3793 40.8447L27.6524 39.9277C27.8218 39.3618 27.8738 38.7672 27.8051 38.1804C27.7365 37.5936 27.5486 37.0271 27.253 36.5155C26.9575 36.004 26.5605 35.5583 26.0864 35.2057C25.6124 34.8532 25.0713 34.6012 24.4963 34.4653L23.7377 34.2876C23.6511 33.5564 23.6438 32.818 23.716 32.0853L24.7174 31.8295C25.2772 31.6863 25.8027 31.4327 26.263 31.0836C26.7233 30.7344 27.1092 30.2968 27.398 29.7963C27.6868 29.2959 27.8726 28.7428 27.9446 28.1695C28.0166 27.5963 27.9733 27.0144 27.8171 26.4581ZM33.0953 35.2544C33.6702 35.2544 34.2215 35.026 34.6281 34.6195C35.0346 34.213 35.2629 33.6616 35.2629 33.0867C35.2629 32.5118 35.0346 31.9605 34.6281 31.554C34.2215 31.1475 33.6702 30.9191 33.0953 30.9191C32.5204 30.9191 31.9691 31.1475 31.5626 31.554C31.1561 31.9605 30.9277 32.5118 30.9277 33.0867C30.9277 33.6616 31.1561 34.213 31.5626 34.6195C31.9691 35.026 32.5204 35.2544 33.0953 35.2544Z" fill="black"/>
</svg>
