<svg width="48" height="48" viewBox="0 0 48 48" fill="none" xmlns="http://www.w3.org/2000/svg">
<path d="M9.576 34.888C9.42621 34.9935 9.2503 35.0559 9.06748 35.0683C8.88466 35.0806 8.70196 35.0425 8.53932 34.9581C8.37668 34.8737 8.24037 34.7462 8.14526 34.5896C8.05015 34.433 7.9999 34.2532 8 34.07V13.93C7.9999 13.7468 8.05015 13.567 8.14526 13.4104C8.24037 13.2538 8.37668 13.1263 8.53932 13.0419C8.70196 12.9575 8.88466 12.9194 9.06748 12.9317C9.2503 12.9441 9.42621 13.0064 9.576 13.112L23.842 23.184C23.9724 23.2764 24.0788 23.3987 24.1522 23.5407C24.2256 23.6827 24.2639 23.8402 24.2639 24C24.2639 24.1598 24.2256 24.3173 24.1522 24.4593C24.0788 24.6013 23.9724 24.7236 23.842 24.816L9.576 34.888ZM26 13.93C25.9999 13.7468 26.0501 13.567 26.1453 13.4104C26.2404 13.2538 26.3767 13.1263 26.5393 13.0419C26.702 12.9575 26.8847 12.9194 27.0675 12.9317C27.2503 12.9441 27.4262 13.0064 27.576 13.112L41.842 23.184C41.9724 23.2764 42.0788 23.3987 42.1522 23.5407C42.2256 23.6827 42.2639 23.8402 42.2639 24C42.2639 24.1598 42.2256 24.3173 42.1522 24.4593C42.0788 24.6013 41.9724 24.7236 41.842 24.816L27.576 34.888C27.4262 34.9935 27.2503 35.0559 27.0675 35.0683C26.8847 35.0806 26.702 35.0425 26.5393 34.9581C26.3767 34.8737 26.2404 34.7462 26.1453 34.5896C26.0501 34.433 25.9999 34.2532 26 34.07V13.93Z" fill="black"/>
</svg>
