<svg width="48" height="48" viewBox="0 0 48 48" fill="none" xmlns="http://www.w3.org/2000/svg">
<path d="M40.8 22.5C40.2951 22.5036 39.795 22.5982 39.3237 22.7793L34.2879 18.657C34.4118 18.2076 34.5 17.7414 34.5 17.25C34.5 14.3394 32.1606 12 29.25 12C26.3394 12 24 14.3394 24 17.25C24 18.0816 24.21 18.8565 24.5502 19.5537L18.4413 26.7735C18.1968 26.7277 17.9488 26.7031 17.7 26.7C17.3241 26.7 16.9692 26.763 16.6248 26.8554L11.2425 21.4731C11.337 21.1308 11.4 20.7759 11.4 20.4C11.4 18.0732 9.5268 16.2 7.2 16.2C4.8732 16.2 3 18.0732 3 20.4C3 22.7268 4.8732 24.6 7.2 24.6C7.5759 24.6 7.9308 24.537 8.2752 24.4446L13.6575 29.8269C13.5566 30.1758 13.5036 30.5368 13.5 30.9C13.5 33.2268 15.3732 35.1 17.7 35.1C20.0268 35.1 21.9 33.2268 21.9 30.9C21.9 30.4023 21.7992 29.934 21.6417 29.4909L27.759 22.2627C28.2357 22.4013 28.7292 22.5 29.25 22.5C30.0788 22.4954 30.8944 22.2931 31.6293 21.9099L36.6672 26.0322C36.6277 26.2527 36.6052 26.476 36.6 26.7C36.6 29.0268 38.4732 30.9 40.8 30.9C43.1268 30.9 45 29.0268 45 26.7C45 24.3732 43.1268 22.5 40.8 22.5Z" fill="black"/>
</svg>
