<svg width="48" height="48" viewBox="0 0 48 48" fill="none" xmlns="http://www.w3.org/2000/svg">
<path d="M38.4 10H9.6C7.62 10 6 11.62 6 13.6V35.2C6 37.18 7.62 38.8 9.6 38.8H38.4C40.38 38.8 42 37.18 42 35.2V13.6C42 11.62 40.38 10 38.4 10ZM11.4 24.4H15C15.99 24.4 16.8 25.21 16.8 26.2C16.8 27.19 15.99 28 15 28H11.4C10.41 28 9.6 27.19 9.6 26.2C9.6 25.21 10.41 24.4 11.4 24.4ZM25.8 35.2H11.4C10.41 35.2 9.6 34.39 9.6 33.4C9.6 32.41 10.41 31.6 11.4 31.6H25.8C26.79 31.6 27.6 32.41 27.6 33.4C27.6 34.39 26.79 35.2 25.8 35.2ZM36.6 35.2H33C32.01 35.2 31.2 34.39 31.2 33.4C31.2 32.41 32.01 31.6 33 31.6H36.6C37.59 31.6 38.4 32.41 38.4 33.4C38.4 34.39 37.59 35.2 36.6 35.2ZM36.6 28H22.2C21.21 28 20.4 27.19 20.4 26.2C20.4 25.21 21.21 24.4 22.2 24.4H36.6C37.59 24.4 38.4 25.21 38.4 26.2C38.4 27.19 37.59 28 36.6 28Z" fill="black"/>
</svg>
