<svg width="48" height="48" viewBox="0 0 48 48" fill="none" xmlns="http://www.w3.org/2000/svg">
<path d="M15.0002 24H11.4002C10.4102 24 9.60022 24.81 9.60022 25.8C9.60022 26.79 10.4102 27.6 11.4002 27.6H15.0002C15.9902 27.6 16.8002 26.79 16.8002 25.8C16.8002 24.81 15.9902 24 15.0002 24Z" fill="black"/>
<path d="M11.4002 34.8H25.8002C26.7902 34.8 27.6002 33.99 27.6002 33C27.6002 32.01 26.7902 31.2 25.8002 31.2H11.4002C10.4102 31.2 9.60022 32.01 9.60022 33C9.60022 33.99 10.4102 34.8 11.4002 34.8Z" fill="black"/>
<path d="M36.6002 34.8H33.0002C32.0102 34.8 31.2002 33.99 31.2002 33C31.2002 32.01 32.0102 31.2 33.0002 31.2H36.6002C37.5902 31.2 38.4002 32.01 38.4002 33C38.4002 33.99 37.5902 34.8 36.6002 34.8Z" fill="black"/>
<path d="M22.2002 27.6H36.6002C37.5902 27.6 38.4002 26.79 38.4002 25.8C38.4002 24.81 37.5902 24 36.6002 24H22.2002C21.2102 24 20.4002 24.81 20.4002 25.8C20.4002 26.79 21.2102 27.6 22.2002 27.6Z" fill="black"/>
<path fill-rule="evenodd" clip-rule="evenodd" d="M6.00024 13.2C6.00024 11.2118 7.61202 9.59998 9.60024 9.59998H38.4002C40.3885 9.59998 42.0002 11.2118 42.0002 13.2V34.8C42.0002 36.7882 40.3885 38.4 38.4002 38.4H9.60024C7.61202 38.4 6.00024 36.7882 6.00024 34.8V13.2ZM9.60024 11.35H38.4002C39.422 11.35 40.2502 12.1782 40.2502 13.2V34.8C40.2502 35.8217 39.422 36.65 38.4002 36.65H9.60024C8.57852 36.65 7.75024 35.8217 7.75024 34.8V13.2C7.75024 12.1782 8.57852 11.35 9.60024 11.35Z" fill="black"/>
</svg>
