<svg width="48" height="48" viewBox="0 0 48 48" fill="none" xmlns="http://www.w3.org/2000/svg">
<path d="M14.4 26C10.88 26 8 28.88 8 32.4C8 35.92 10.88 38.8 14.4 38.8C17.92 38.8 20.8 35.92 20.8 32.4C20.8 28.88 17.92 26 14.4 26ZM24 10C20.48 10 17.6 12.88 17.6 16.4C17.6 19.92 20.48 22.8 24 22.8C27.52 22.8 30.4 19.92 30.4 16.4C30.4 12.88 27.52 10 24 10ZM33.6 26C30.08 26 27.2 28.88 27.2 32.4C27.2 35.92 30.08 38.8 33.6 38.8C37.12 38.8 40 35.92 40 32.4C40 28.88 37.12 26 33.6 26Z" fill="black"/>
</svg>
