<svg width="48" height="48" viewBox="0 0 48 48" fill="none" xmlns="http://www.w3.org/2000/svg">
<path d="M40.7569 19.1058C41.2992 19.4045 41.7515 19.8432 42.0666 20.3762C42.3816 20.9093 42.5477 21.5171 42.5477 22.1363C42.5477 22.7554 42.3816 23.3632 42.0666 23.8963C41.7515 24.4293 41.2992 24.868 40.7569 25.1667L28.6952 31.7994C28.5883 29.9015 28.0561 28.0518 27.1381 26.3872C26.2201 24.7226 24.9396 23.2856 23.3915 22.1825C21.8433 21.0794 20.067 20.3383 18.1939 20.0142C16.3207 19.69 14.3987 19.791 12.5698 20.3097V9.45879C12.5699 8.85765 12.7267 8.26691 13.0246 7.7448C13.3226 7.22269 13.7514 6.78724 14.2689 6.48135C14.7864 6.17546 15.3747 6.0097 15.9758 6.00041C16.5768 5.99112 17.1699 6.13862 17.6966 6.42837L40.7592 19.1058H40.7569ZM10.4158 25.4642C10.5819 26.056 10.628 26.6751 10.5514 27.285C10.4748 27.895 10.2771 28.4834 9.96987 29.0159C9.66262 29.5483 9.25204 30.0139 8.76227 30.3854C8.2725 30.7569 7.71341 31.0267 7.11786 31.1791L6.05238 31.4512C5.97553 32.2308 5.98326 33.0164 6.07544 33.7944L6.88263 33.9858C7.49408 34.1304 8.06954 34.3984 8.57372 34.7733C9.07789 35.1483 9.50014 35.6223 9.81457 36.1663C10.129 36.7102 10.329 37.3127 10.4022 37.9368C10.4755 38.5608 10.4204 39.1932 10.2405 39.7952L9.94764 40.7685C10.5426 41.2389 11.1861 41.6402 11.8734 41.9631L12.6229 41.1698C13.0544 40.7128 13.5747 40.3489 14.1519 40.1004C14.7291 39.8518 15.351 39.7238 15.9795 39.7242C16.6079 39.7247 17.2297 39.8535 17.8065 40.1029C18.3834 40.3522 18.9032 40.7169 19.3341 41.1744L20.1113 42C20.7847 41.6887 21.4212 41.3035 22.007 40.8515L21.6473 39.5692C21.4808 38.9772 21.4344 38.3579 21.5108 37.7477C21.5872 37.1375 21.7849 36.5488 22.0922 36.0161C22.3995 35.4834 22.8102 35.0175 23.3001 34.6459C23.7901 34.2742 24.3494 34.0043 24.9452 33.852L26.0061 33.5822C26.0832 32.8018 26.0755 32.0154 25.983 31.2367L25.1804 31.0476C24.5687 30.903 23.993 30.635 23.4886 30.2599C22.9843 29.8848 22.5619 29.4105 22.2474 28.8663C21.933 28.322 21.7331 27.7193 21.66 27.095C21.587 26.4707 21.6423 25.838 21.8225 25.2359L22.1131 24.2649C21.5189 23.7939 20.8728 23.3923 20.1874 23.068L19.4379 23.8613C19.0065 24.3184 18.4863 24.6825 17.9092 24.9312C17.3321 25.18 16.7102 25.3082 16.0818 25.308C15.4533 25.3078 14.8315 25.1792 14.2546 24.93C13.6776 24.6808 13.1577 24.3164 12.7267 23.859L11.9495 23.0334C11.2777 23.3439 10.6426 23.7283 10.056 24.1796L10.4158 25.4642ZM16.0292 34.8229C15.4176 34.8229 14.831 34.58 14.3985 34.1475C13.9659 33.715 13.723 33.1284 13.723 32.5167C13.723 31.905 13.9659 31.3184 14.3985 30.8859C14.831 30.4534 15.4176 30.2104 16.0292 30.2104C16.6409 30.2104 17.2275 30.4534 17.66 30.8859C18.0925 31.3184 18.3355 31.905 18.3355 32.5167C18.3355 33.1284 18.0925 33.715 17.66 34.1475C17.2275 34.58 16.6409 34.8229 16.0292 34.8229Z" fill="black"/>
</svg>
