<svg width="48" height="48" viewBox="0 0 48 48" fill="none" xmlns="http://www.w3.org/2000/svg">
<path d="M22.2827 11.7581V36.2419C22.2827 36.632 22.1402 36.9695 21.8551 37.2546C21.5701 37.5396 21.2325 37.6821 20.8425 37.6821C20.4524 37.6821 20.1149 37.5396 19.8298 37.2546L12.3361 29.7609H6.44022C6.05016 29.7609 5.71261 29.6184 5.42757 29.3333C5.14252 29.0483 5 28.7107 5 28.3207V19.6793C5 19.2893 5.14252 18.9517 5.42757 18.6667C5.71261 18.3816 6.05016 18.2391 6.44022 18.2391H12.3361L19.8298 10.7454C20.1149 10.4604 20.4524 10.3179 20.8425 10.3179C21.2325 10.3179 21.5701 10.4604 21.8551 10.7454C22.1402 11.0305 22.2827 11.368 22.2827 11.7581ZM30.924 24C30.924 25.1402 30.6052 26.2016 29.9676 27.1842C29.33 28.1669 28.4862 28.8683 27.436 29.2883C27.286 29.3633 27.0984 29.4008 26.8734 29.4008C26.4834 29.4008 26.1458 29.2621 25.8608 28.9845C25.5757 28.707 25.4332 28.3657 25.4332 27.9606C25.4332 27.6456 25.5232 27.3793 25.7032 27.1617C25.8833 26.9442 26.1008 26.7567 26.3558 26.5992C26.6109 26.4416 26.8659 26.2691 27.121 26.0816C27.376 25.894 27.5935 25.624 27.7736 25.2714C27.9536 24.9189 28.0436 24.4951 28.0436 24C28.0436 23.5049 27.9536 23.0811 27.7736 22.7286C27.5935 22.376 27.376 22.106 27.121 21.9184C26.8659 21.7309 26.6109 21.5584 26.3558 21.4008C26.1008 21.2433 25.8833 21.0558 25.7032 20.8383C25.5232 20.6207 25.4332 20.3544 25.4332 20.0394C25.4332 19.6343 25.5757 19.293 25.8608 19.0155C26.1458 18.7379 26.4834 18.5992 26.8734 18.5992C27.0984 18.5992 27.286 18.6367 27.436 18.7117C28.4862 19.1167 29.33 19.8143 29.9676 20.8045C30.6052 21.7947 30.924 22.8598 30.924 24ZM36.6849 24C36.6849 26.2954 36.0473 28.4144 34.7721 30.3572C33.497 32.3 31.8092 33.714 29.7089 34.5992C29.5138 34.6742 29.3263 34.7117 29.1463 34.7117C28.7412 34.7117 28.3962 34.5692 28.1111 34.2841C27.8261 33.9991 27.6835 33.6615 27.6835 33.2714C27.6835 32.6864 27.9761 32.2438 28.5612 31.9437C29.4013 31.5087 29.9714 31.1786 30.2714 30.9536C31.3816 30.1435 32.248 29.1271 32.8706 27.9044C33.4932 26.6817 33.8045 25.3802 33.8045 24C33.8045 22.6198 33.4932 21.3183 32.8706 20.0956C32.248 18.8729 31.3816 17.8565 30.2714 17.0464C29.9714 16.8214 29.4013 16.4913 28.5612 16.0563C27.9761 15.7562 27.6835 15.3136 27.6835 14.7286C27.6835 14.3385 27.8261 14.0009 28.1111 13.7159C28.3962 13.4308 28.7337 13.2883 29.1238 13.2883C29.3188 13.2883 29.5138 13.3258 29.7089 13.4008C31.8092 14.286 33.497 15.7 34.7721 17.6428C36.0473 19.5856 36.6849 21.7046 36.6849 24ZM42.4458 24C42.4458 27.4505 41.4932 30.6198 39.5879 33.5077C37.6826 36.3957 35.1472 38.5223 31.9817 39.8875C31.7867 39.9625 31.5917 40 31.3966 40C31.0066 40 30.669 39.8575 30.384 39.5724C30.0989 39.2874 29.9564 38.9498 29.9564 38.5598C29.9564 38.0197 30.2489 37.5771 30.834 37.2321C30.9391 37.1721 31.1078 37.0933 31.3404 36.9958C31.5729 36.8983 31.7417 36.8195 31.8467 36.7595C32.5368 36.3844 33.1519 36.0019 33.692 35.6118C35.5373 34.2466 36.9775 32.5438 38.0127 30.5035C39.0478 28.4632 39.5654 26.2954 39.5654 24C39.5654 21.7046 39.0478 19.5368 38.0127 17.4965C36.9775 15.4562 35.5373 13.7534 33.692 12.3882C33.1519 11.9981 32.5368 11.6156 31.8467 11.2405C31.7417 11.1805 31.5729 11.1017 31.3404 11.0042C31.1078 10.9067 30.9391 10.8279 30.834 10.7679C30.2489 10.4229 29.9564 9.98031 29.9564 9.44023C29.9564 9.05016 30.0989 8.71261 30.384 8.42757C30.669 8.14252 31.0066 8 31.3966 8C31.5917 8 31.7867 8.03751 31.9817 8.11252C35.1472 9.47773 37.6826 11.6043 39.5879 14.4923C41.4932 17.3802 42.4458 20.5495 42.4458 24Z" fill="black"/>
</svg>
