<svg width="48" height="48" viewBox="0 0 48 48" fill="none" xmlns="http://www.w3.org/2000/svg">
<path d="M22.2827 11.7581V36.2419C22.2827 36.632 22.1402 36.9695 21.8551 37.2546C21.5701 37.5396 21.2325 37.6821 20.8425 37.6821C20.4524 37.6821 20.1149 37.5396 19.8298 37.2546L12.3361 29.7609H6.44022C6.05016 29.7609 5.71261 29.6184 5.42757 29.3333C5.14252 29.0483 5 28.7107 5 28.3207V19.6793C5 19.2893 5.14252 18.9517 5.42757 18.6667C5.71261 18.3816 6.05016 18.2391 6.44022 18.2391H12.3361L19.8298 10.7454C20.1149 10.4604 20.4524 10.3179 20.8425 10.3179C21.2325 10.3179 21.5701 10.4604 21.8551 10.7454C22.1402 11.0305 22.2827 11.368 22.2827 11.7581Z" fill="black"/>
<path d="M29.1727 17.3728C28.6757 16.8757 27.8698 16.8757 27.3728 17.3728C26.8757 17.8698 26.8757 18.6757 27.3728 19.1727L32.2001 24L27.3728 28.8273C26.8757 29.3243 26.8757 30.1302 27.3728 30.6272C27.8698 31.1243 28.6757 31.1243 29.1727 30.6272L34 25.7999L38.8273 30.6272C39.3244 31.1243 40.1302 31.1243 40.6272 30.6272C41.1243 30.1302 41.1243 29.3243 40.6272 28.8273L35.7999 24L40.6272 19.1727C41.1243 18.6757 41.1243 17.8698 40.6272 17.3728C40.1302 16.8757 39.3244 16.8757 38.8273 17.3728L34 22.2001L29.1727 17.3728Z" fill="black"/>
</svg>
